# xmcd CD database file
#
# Track frame offsets:
#	150
#	18112
#	33856
#	54847
#	79323
#	98368
#	113642
#	139724
#	162765
#	178751
#	196918
#	215064
#	238110
#	267135
#	285831
#	310903
#	334692
#
# Disc length: 4791 seconds
#
# Revision: 0
# Processed by: cddbd v1.4PL0 Copyright (c) Steve Scherf et al.
# Submitted via: CDex 1.50beta10
#
DISCID=d712b511
DTITLE=Gregorian - Super Best Pop
DYEAR=2002
DGENRE=Rhythmic Soul
TTITLE0=Moment Of Peace
TTITLE1=So Bad...
TTITLE2=Still I'm Sad
TTITLE3=The Quiet Self
TTITLE4=Nostradamus
TTITLE5=Coloris
TTITLE6=Losing My Religion
TTITLE7=Gregoria The Rhythm
TTITLE8=Watcha Gonna Do
TTITLE9=Aureus
TTITLE10=Once In A Lifetime
TTITLE11=Brother In Arms
TTITLE12=Don't Give Up
TTITLE13=The Sound Of Silenece
TTITLE14=Nothing Else Matter
TTITLE15=Reflect
TTITLE16=Videoclip: Enigma - Sadness Part 1
EXTD=YEAR: 2002
EXTT0=
EXTT1=
EXTT2=
EXTT3=
EXTT4=
EXTT5=
EXTT6=
EXTT7=
EXTT8=
EXTT9=
EXTT10=
EXTT11=
EXTT12=
EXTT13=
EXTT14=
EXTT15=
EXTT16=
PLAYORDER=
